<?xml version="1.0" encoding="UTF-8"?>
<svg width="752pt" height="752pt" version="1.1" viewBox="0 0 752 752" xmlns="http://www.w3.org/2000/svg">
 <path d="m596.22 533.99c-7.5352-8.3555-15.793-16.031-24.676-22.934l9.9336-11.922c1.2734-1.5273 1.8789-3.5039 1.6758-5.4805-0.19922-1.9766-1.1875-3.793-2.7383-5.0352-14.605-10.816-30.359-19.992-46.973-27.367 33.082-69.383 40.648-169.05 42.34-209.7v0.003906c0.23828-7.5781-1.5781-15.074-5.2578-21.703-3.6758-6.6289-9.0781-12.137-15.633-15.945-34.57-20.82-141.54-59.891-178.89-59.891s-144.32 39.07-178.86 59.871c-6.5586 3.8086-11.969 9.3203-15.652 15.949-3.6797 6.6328-5.5 14.137-5.2656 21.715 1.6914 40.648 9.2578 140.32 42.34 209.7h-0.003906c-16.613 7.3711-32.363 16.551-46.969 27.367-1.6406 1.3164-2.6445 3.2695-2.7617 5.3711-0.11719 2.1016 0.66797 4.1523 2.1523 5.6406l10.566 10.566c-9.2852 7.1367-17.906 15.098-25.758 23.789-1.707 1.9961-2.2305 4.7461-1.3711 7.2305 0.85547 2.4805 2.9648 4.3242 5.543 4.8398l29.977 5.9922-6.2227 37.332c-0.52734 3.1641 1.043 6.3086 3.8906 7.7852 2.8516 1.4766 6.3281 0.94922 8.6094-1.3086 0.41797-0.41406 40.875-40.117 81.859-58.191 50.957 47.25 93.973 59.52 95.98 60.07h-0.003906c1.2773 0.34766 2.6211 0.34766 3.8984 0 2.0273-0.55078 44.625-12.598 95.223-59.297 39.652 18.941 82.434 57.254 82.871 57.652h-0.003906c2.3359 2.1094 5.7539 2.5078 8.5117 0.99609 2.7617-1.5117 4.2617-4.6055 3.7422-7.707l-6.2227-37.332 29.977-5.9922c2.5742-0.51563 4.6836-2.3555 5.543-4.8359 0.85937-2.4805 0.33984-5.2305-1.3672-7.2266zm-405.22-283.05c-0.11719-4.9219 1.0938-9.7852 3.5156-14.074 2.418-4.2891 5.9492-7.8438 10.223-10.285 32.52-19.586 136.59-57.77 171.26-57.77 34.672 0 138.75 38.184 171.29 57.785 4.2656 2.4453 7.793 6 10.207 10.285s3.6211 9.1406 3.5 14.059c-1.6562 39.82-9.0391 137.56-41.137 204.42-3.5859-1.4727-7.2461-2.9297-11.133-4.3672 28.117-59.844 34.648-146.63 36.125-182.28h0.003906c0.21094-6.6484-1.3438-13.234-4.5078-19.086-3.1641-5.8516-7.8203-10.758-13.504-14.219-29.32-18.113-118.29-51.797-150.85-51.797s-121.52 33.684-150.86 51.797c-5.6797 3.4648-10.336 8.3711-13.5 14.223-3.1602 5.8516-4.7148 12.441-4.5 19.09 1.4766 35.641 8.0039 122.43 36.125 182.27-3.8867 1.4375-7.5469 2.8945-11.133 4.3672-32.102-66.863-39.48-164.6-41.137-204.42zm172.6 62.219v-0.003906c0.26562-2.6016 1.3555-5.0508 3.1094-6.9922 2.4102-2.5664 5.7734-4.0234 9.293-4.0234s6.8828 1.457 9.293 4.0234c2.4492 2.7539 3.5703 6.4414 3.0703 10.094l-4.5586 81.945h-15.605l-4.5625-81.895 0.37891-0.019532c-0.058594-1.082-0.27734-2.0859-0.41797-3.1328zm39.539 3.9219c0.41797-7.5039 4.3984-15.074 12.363-15.074 3.9414 0.019532 7.6719 1.7812 10.188 4.8164 1.9961 2.3164 2.8359 5.4062 2.2969 8.4141-2.1328 10.82-16.152 65.309-20.711 82.965h-8.6523l4.4883-80.719c0.015625-0.13672-0.011719-0.26953 0-0.40625zm-54.273-3.0508v-0.003906c-0.0625 1.0156-0.0625 2.0352 0.003907 3.0508l4.5156 81.125h-8.2852c-4.5586-17.66-18.578-72.148-20.707-82.965-0.53906-3.0039 0.30078-6.0938 2.293-8.4102 2.5195-3.0352 6.25-4.8008 10.195-4.8203 6.4531 0.41016 11.594 5.5664 11.984 12.023zm-2.3867 114.96c-0.015624-0.40234-0.074218-0.78906-0.074218-1.1953v-14.797h59.199v14.801c0 0.40625-0.054687 0.79297-0.074218 1.1953-9.5352-0.70312-19.297-1.1953-29.527-1.1953s-19.988 0.49219-29.523 1.1914zm73.922-1.1914v-21.266c2.1719-8.3789 19.594-75.688 22.105-88.438 1.3984-7.3516-0.57812-14.938-5.3828-20.676-5.3398-6.4336-13.258-10.176-21.621-10.219-7.4414 0.003906-14.512 3.2773-19.328 8.9492-5.1133-5.6562-12.371-8.9062-19.996-8.9492-7.6289-0.039063-14.922 3.125-20.098 8.7266-4.832-5.5508-11.836-8.7344-19.199-8.7266-8.3672 0.042969-16.285 3.7852-21.629 10.223-4.8047 5.7344-6.7812 13.324-5.3828 20.672 2.4141 12.254 18.602 74.914 21.793 87.23 0 0.097656-0.054687 0.17578-0.054687 0.27344v22.199c0 0.82422 0.10547 1.625 0.14844 2.4414h-0.003906c-25.277 2.7578-50.211 8.0703-74.418 15.855-27.543-57.328-33.949-142.98-35.402-177.99v0.003906c-0.10938-4.0273 0.85156-8.0117 2.7812-11.547 1.9336-3.5312 4.7656-6.4922 8.2148-8.5742 27.223-16.809 114.18-49.582 143.07-49.582s115.85 32.773 143.07 49.578c3.4492 2.0781 6.2852 5.0352 8.2188 8.5703 1.9336 3.5312 2.8945 7.5156 2.7891 11.543-1.4531 35.02-7.8633 120.67-35.402 177.99h-0.003906c-24.203-7.7852-49.137-13.098-74.418-15.852 0.042969-0.81641 0.14844-1.6172 0.14844-2.4414zm-44.398 14.801v-0.003906c66.824-0.95703 132.49 17.52 189 53.188l-27.148 32.582c-16.113-12.195-64.805-41.371-161.86-41.371-87.328 0-138.61 30.57-154.73 42l-33.641-33.637c56.395-35.367 121.81-53.688 188.37-52.762zm70.117 65.363 0.003906-0.003906c-20.168 19.551-43.996 34.93-70.121 45.254-25.555-10.066-48.91-25.012-68.754-44.004 22.574-5.0117 45.633-7.5 68.754-7.4141 23.516-0.13281 46.988 1.9297 70.121 6.1641zm-246.26 30.977-23.605-4.7227c4.0664-3.8242 9.4336-8.5195 15.848-13.469l23.273 23.277c2.7344 2.7227 7.0977 2.8945 10.039 0.39453 11.609-8.7617 24.348-15.926 37.867-21.297 1.1289 1.1719 2.2578 2.3281 3.3828 3.4648v-0.003906c-23.355 11.992-45.133 26.824-64.844 44.16l3.8867-23.332c0.65625-3.9375-1.9336-7.6875-5.8477-8.4727zm176.14 43.898c-9.4023-3.1328-51.309-19.027-97.66-65.434 3.7969-1.3203 7.8008-2.5938 12.004-3.8242 44.215 43.066 82.039 54.086 83.664 54.535 1.3047 0.36719 2.6836 0.36719 3.9883 0 1.668-0.46484 40.508-11.809 85.539-56.367 4.3164 1.0898 8.4375 2.2266 12.32 3.4102-47.215 48.168-90.301 64.5-99.855 67.68zm176.14-43.898c-3.9141 0.78516-6.5 4.5352-5.8438 8.4766l4.082 24.484c-20.449-16.934-42.52-31.805-65.891-44.398 2.2266-2.2422 4.4766-4.6406 6.7227-7.0234 15.414 5.2539 29.758 13.227 42.352 23.547 1.3867 1.3867 3.2695 2.168 5.2305 2.168l0.33203-0.007812h0.003906c2.0781-0.09375 4.0195-1.0586 5.3516-2.6562l17.59-21.109c5.4766 4.3242 10.082 8.3984 13.684 11.793zm-152.85-309.12-11.469-1.7031-5.1523-10.719c-1.3828-2.3789-3.9219-3.8438-6.6719-3.8438s-5.2891 1.4648-6.6719 3.8438l-5.1523 10.719-11.469 1.7031c-2.6445 0.39453-4.8711 2.1875-5.8242 4.6875-0.94922 2.5-0.47656 5.3203 1.2383 7.375l8.0078 9.5859-2.0508 12.312h-0.003906c-0.47266 2.8281 0.73438 5.6719 3.0898 7.3008 2.3594 1.6328 5.4453 1.7539 7.9219 0.31641l10.914-6.3359 10.91 6.3359 0.003906 0.003906c2.4766 1.4375 5.5664 1.3125 7.9219-0.31641 2.3555-1.6289 3.5625-4.4766 3.0898-7.3008l-2.0508-12.312 8.0078-9.5859h-0.003906c1.7148-2.0547 2.1875-4.875 1.2383-7.375-0.95313-2.5-3.1797-4.293-5.8242-4.6875zm-16.961 14.77c-1.3828 1.6602-1.9727 3.8359-1.6211 5.9648l0.019531 0.14844-1.0195-0.59375h0.003906c-2.2969-1.332-5.1328-1.332-7.4297 0l-1.0195 0.59375 0.019531-0.14844h0.003906c0.35547-2.1289-0.23828-4.3047-1.6172-5.9648l-1.7344-2.0703 2.2969-0.33984c2.4258-0.36328 4.5156-1.9023 5.5781-4.1094l0.1875-0.39844 0.1875 0.39453c1.0664 2.2109 3.1562 3.75 5.582 4.1094l2.293 0.33984z"/>
</svg>
